<?xml version="1.0" encoding="utf-8"?>
<!-- Generator: Adobe Illustrator 24.0.2, SVG Export Plug-In . SVG Version: 6.00 Build 0)  -->
<svg version="1.1" id="Layer_1" xmlns="http://www.w3.org/2000/svg" xmlns:xlink="http://www.w3.org/1999/xlink" x="0px" y="0px"
	 viewBox="0 0 2687.45 1796.53" style="enable-background:new 0 0 2687.45 1796.53;" xml:space="preserve">
<style type="text/css">
	.st0{clip-path:url(#SVGID_2_);fill:#070707;}
	.st1{clip-path:url(#SVGID_2_);}
	.st2{fill:url(#SVGID_3_);}
	.st3{fill:url(#SVGID_4_);}
	.st4{fill:url(#SVGID_5_);}
	.st5{clip-path:url(#SVGID_2_);fill:url(#SVGID_6_);}
	.st6{clip-path:url(#SVGID_2_);fill:url(#SVGID_7_);}
	.st7{fill:url(#SVGID_8_);}
	.st8{fill:url(#SVGID_9_);}
	.st9{clip-path:url(#SVGID_2_);fill:url(#SVGID_10_);}
	.st10{clip-path:url(#SVGID_2_);fill:#FFFFFF;}
	.st11{clip-path:url(#SVGID_2_);fill:url(#SVGID_11_);}
	.st12{fill:url(#SVGID_12_);}
	.st13{fill:url(#SVGID_13_);}
	.st14{fill:url(#SVGID_14_);}
	.st15{fill:url(#SVGID_15_);}
	.st16{fill:url(#SVGID_16_);}
	.st17{fill:url(#SVGID_17_);}
	.st18{fill:url(#SVGID_18_);}
	.st19{fill:url(#SVGID_19_);}
	.st20{fill:url(#SVGID_20_);}
	.st21{fill:url(#SVGID_21_);}
	.st22{fill:url(#SVGID_22_);}
</style>
<g>
	<defs>
		<rect id="SVGID_1_" width="2694.79" height="1796.53"/>
	</defs>
	<clipPath id="SVGID_2_">
		<use xlink:href="#SVGID_1_"  style="overflow:visible;"/>
	</clipPath>
	<rect class="st0" width="2694.79" height="1796.53"/>
	<g class="st1">
		<linearGradient id="SVGID_3_" gradientUnits="userSpaceOnUse" x1="2515.0042" y1="666.2583" x2="2293.2173" y2="895.1381">
			<stop  offset="1.508760e-03" style="stop-color:#9E6025"/>
			<stop  offset="0.1224" style="stop-color:#AE7738"/>
			<stop  offset="0.3739" style="stop-color:#D8B06A"/>
			<stop  offset="0.4658" style="stop-color:#E9C77E"/>
			<stop  offset="0.4983" style="stop-color:#EBC983"/>
			<stop  offset="0.5349" style="stop-color:#F1CF90"/>
			<stop  offset="0.5735" style="stop-color:#FAD9A7"/>
			<stop  offset="0.5903" style="stop-color:#FFDEB3"/>
			<stop  offset="0.6405" style="stop-color:#F7D6A1"/>
			<stop  offset="0.7161" style="stop-color:#E9C77E"/>
			<stop  offset="0.8916" style="stop-color:#F3D58C"/>
			<stop  offset="0.9267" style="stop-color:#F6D98F"/>
		</linearGradient>
		<path class="st2" d="M2486.26,922.99h-164.31l-0.52-0.9l-81.63-141.39l82.15-142.29h164.31l0.52,0.9l81.63,141.39L2486.26,922.99z
			 M2324.04,919.4h160.15l80.08-138.7L2484.19,642h-160.15l-80.08,138.7L2324.04,919.4z"/>
	</g>
	<g class="st1">
		<linearGradient id="SVGID_4_" gradientUnits="userSpaceOnUse" x1="2758.3457" y1="244.7788" x2="2536.5598" y2="473.6576">
			<stop  offset="1.508760e-03" style="stop-color:#C39CF2"/>
			<stop  offset="0.1104" style="stop-color:#CAA4DB"/>
			<stop  offset="0.3367" style="stop-color:#DDBAA2"/>
			<stop  offset="0.4658" style="stop-color:#E9C77E"/>
			<stop  offset="0.4983" style="stop-color:#EBC983"/>
			<stop  offset="0.5349" style="stop-color:#F1CF90"/>
			<stop  offset="0.5735" style="stop-color:#FAD9A7"/>
			<stop  offset="0.5903" style="stop-color:#FFDEB3"/>
			<stop  offset="0.6405" style="stop-color:#F7D6A1"/>
			<stop  offset="0.7161" style="stop-color:#E9C77E"/>
			<stop  offset="0.8916" style="stop-color:#F3D58C"/>
			<stop  offset="0.9267" style="stop-color:#F6D98F"/>
		</linearGradient>
		<path class="st3" d="M2729.61,501.51H2565.3l-0.52-0.9l-81.63-141.39l82.15-142.29h164.31l0.52,0.9l81.63,141.39L2729.61,501.51z
			 M2567.38,497.91h160.15l80.08-138.7l-80.08-138.7h-160.15l-80.08,138.7L2567.38,497.91z"/>
	</g>
	<g class="st1">
		<linearGradient id="SVGID_5_" gradientUnits="userSpaceOnUse" x1="2515.0042" y1="104.2849" x2="2293.2173" y2="333.1646">
			<stop  offset="1.508760e-03" style="stop-color:#C39CF2"/>
			<stop  offset="0.1104" style="stop-color:#CAA4DB"/>
			<stop  offset="0.3367" style="stop-color:#DDBAA2"/>
			<stop  offset="0.4658" style="stop-color:#E9C77E"/>
			<stop  offset="0.4983" style="stop-color:#EBC983"/>
			<stop  offset="0.5349" style="stop-color:#F1CF90"/>
			<stop  offset="0.5735" style="stop-color:#FAD9A7"/>
			<stop  offset="0.5903" style="stop-color:#FFDEB3"/>
			<stop  offset="0.6405" style="stop-color:#F7D6A1"/>
			<stop  offset="0.7161" style="stop-color:#E9C77E"/>
			<stop  offset="0.8916" style="stop-color:#F3D58C"/>
			<stop  offset="0.9267" style="stop-color:#F6D98F"/>
		</linearGradient>
		<path class="st4" d="M2486.26,361.01h-164.31l-0.52-0.9l-81.63-141.39l82.15-142.29h164.31l0.52,0.9l81.63,141.39L2486.26,361.01z
			 M2324.04,357.42h160.15l80.08-138.7l-80.08-138.7h-160.15l-80.08,138.7L2324.04,357.42z"/>
	</g>
	<linearGradient id="SVGID_6_" gradientUnits="userSpaceOnUse" x1="2271.6626" y1="244.7797" x2="2049.8784" y2="473.6567">
		<stop  offset="1.508760e-03" style="stop-color:#C39CF2"/>
		<stop  offset="0.1104" style="stop-color:#CAA4DB"/>
		<stop  offset="0.3367" style="stop-color:#DDBAA2"/>
		<stop  offset="0.4658" style="stop-color:#E9C77E"/>
		<stop  offset="0.4983" style="stop-color:#EBC983"/>
		<stop  offset="0.5349" style="stop-color:#F1CF90"/>
		<stop  offset="0.5735" style="stop-color:#FAD9A7"/>
		<stop  offset="0.5903" style="stop-color:#FFDEB3"/>
		<stop  offset="0.6405" style="stop-color:#F7D6A1"/>
		<stop  offset="0.7161" style="stop-color:#E9C77E"/>
		<stop  offset="0.8916" style="stop-color:#F3D58C"/>
		<stop  offset="0.9267" style="stop-color:#F6D98F"/>
	</linearGradient>
	<path class="st5" d="M2242.92,501.51h-164.3l-0.52-0.9l-81.63-141.39l82.15-142.29h164.3l0.52,0.9l81.63,141.39L2242.92,501.51z
		 M2080.7,497.91h160.15l80.08-138.7l-80.08-138.7H2080.7l-80.08,138.7L2080.7,497.91z"/>
	<linearGradient id="SVGID_7_" gradientUnits="userSpaceOnUse" x1="1541.6399" y1="-176.7013" x2="1319.8541" y2="52.1774">
		<stop  offset="1.508760e-03" style="stop-color:#C39CF2"/>
		<stop  offset="0.1104" style="stop-color:#CAA4DB"/>
		<stop  offset="0.3367" style="stop-color:#DDBAA2"/>
		<stop  offset="0.4658" style="stop-color:#E9C77E"/>
		<stop  offset="0.4983" style="stop-color:#EBC983"/>
		<stop  offset="0.5349" style="stop-color:#F1CF90"/>
		<stop  offset="0.5735" style="stop-color:#FAD9A7"/>
		<stop  offset="0.5903" style="stop-color:#FFDEB3"/>
		<stop  offset="0.6405" style="stop-color:#F7D6A1"/>
		<stop  offset="0.7161" style="stop-color:#E9C77E"/>
		<stop  offset="0.8916" style="stop-color:#F3D58C"/>
		<stop  offset="0.9267" style="stop-color:#F6D98F"/>
	</linearGradient>
	<path class="st6" d="M1512.9,80.03h-164.3l-82.15-142.29l82.15-142.29h164.3l0.52,0.9l81.63,141.39L1512.9,80.03z M1350.67,76.43
		h160.15l80.08-138.7l-80.08-138.7h-160.15l-80.08,138.7L1350.67,76.43z"/>
	<g class="st1">
		<linearGradient id="SVGID_8_" gradientUnits="userSpaceOnUse" x1="2758.3462" y1="525.7643" x2="2536.5596" y2="754.6438">
			<stop  offset="1.508760e-03" style="stop-color:#C39CF2"/>
			<stop  offset="0.1104" style="stop-color:#CAA4DB"/>
			<stop  offset="0.3367" style="stop-color:#DDBAA2"/>
			<stop  offset="0.4658" style="stop-color:#E9C77E"/>
			<stop  offset="0.4983" style="stop-color:#EBC983"/>
			<stop  offset="0.5349" style="stop-color:#F1CF90"/>
			<stop  offset="0.5735" style="stop-color:#FAD9A7"/>
			<stop  offset="0.5903" style="stop-color:#FFDEB3"/>
			<stop  offset="0.6405" style="stop-color:#F7D6A1"/>
			<stop  offset="0.7161" style="stop-color:#E9C77E"/>
			<stop  offset="0.8916" style="stop-color:#F3D58C"/>
			<stop  offset="0.9267" style="stop-color:#F6D98F"/>
		</linearGradient>
		<path class="st7" d="M2729.61,782.49H2565.3l-0.52-0.9l-81.63-141.39l82.15-142.29h164.31l0.52,0.9l81.63,141.39L2729.61,782.49z
			 M2567.38,778.9h160.15l80.08-138.7l-80.08-138.7h-160.15l-80.08,138.7L2567.38,778.9z"/>
	</g>
	<g class="st1">
		<linearGradient id="SVGID_9_" gradientUnits="userSpaceOnUse" x1="2758.3457" y1="1087.7388" x2="2536.5598" y2="1316.6176">
			<stop  offset="1.508760e-03" style="stop-color:#C39CF2"/>
			<stop  offset="0.1104" style="stop-color:#CAA4DB"/>
			<stop  offset="0.3367" style="stop-color:#DDBAA2"/>
			<stop  offset="0.4658" style="stop-color:#E9C77E"/>
			<stop  offset="0.4983" style="stop-color:#EBC983"/>
			<stop  offset="0.5349" style="stop-color:#F1CF90"/>
			<stop  offset="0.5735" style="stop-color:#FAD9A7"/>
			<stop  offset="0.5903" style="stop-color:#FFDEB3"/>
			<stop  offset="0.6405" style="stop-color:#F7D6A1"/>
			<stop  offset="0.7161" style="stop-color:#E9C77E"/>
			<stop  offset="0.8916" style="stop-color:#F3D58C"/>
			<stop  offset="0.9267" style="stop-color:#F6D98F"/>
		</linearGradient>
		<path class="st8" d="M2729.61,1344.47H2565.3l-0.52-0.9l-81.63-141.39l82.15-142.29h164.31l0.52,0.9l81.63,141.39L2729.61,1344.47
			z M2567.38,1340.87h160.15l80.08-138.7l-80.08-138.69h-160.15l-80.08,138.69L2567.38,1340.87z"/>
	</g>
	<linearGradient id="SVGID_10_" gradientUnits="userSpaceOnUse" x1="2515.0042" y1="-176.7018" x2="2293.2175" y2="52.1778">
		<stop  offset="1.508760e-03" style="stop-color:#C39CF2"/>
		<stop  offset="0.1104" style="stop-color:#CAA4DB"/>
		<stop  offset="0.3367" style="stop-color:#DDBAA2"/>
		<stop  offset="0.4658" style="stop-color:#E9C77E"/>
		<stop  offset="0.4983" style="stop-color:#EBC983"/>
		<stop  offset="0.5349" style="stop-color:#F1CF90"/>
		<stop  offset="0.5735" style="stop-color:#FAD9A7"/>
		<stop  offset="0.5903" style="stop-color:#FFDEB3"/>
		<stop  offset="0.6405" style="stop-color:#F7D6A1"/>
		<stop  offset="0.7161" style="stop-color:#E9C77E"/>
		<stop  offset="0.8916" style="stop-color:#F3D58C"/>
		<stop  offset="0.9267" style="stop-color:#F6D98F"/>
	</linearGradient>
	<path class="st9" d="M2486.26,80.03h-164.31l-0.52-0.9l-81.63-141.39l82.15-142.29h164.31l0.52,0.9l81.63,141.39L2486.26,80.03z
		 M2324.04,76.43h160.15l80.08-138.7l-80.08-138.7h-160.15l-80.08,138.7L2324.04,76.43z"/>
	<polygon class="st0" points="2734.03,-71.73 2560.88,-71.73 2474.3,78.23 2560.88,228.19 2734.03,228.19 2820.61,78.23 
		2798.33,39.65 	"/>
	<path class="st10" d="M2798.33,39.65l-64.3-111.37h-173.16l-86.58,149.96l86.58,149.96h173.16l86.58-149.96L2798.33,39.65z
		 M2733,226.41h-171.1l-85.55-148.17l85.55-148.17H2733l85.55,148.17L2733,226.41z"/>
	<linearGradient id="SVGID_11_" gradientUnits="userSpaceOnUse" x1="2512.4905" y1="-300.5435" x2="1855.9055" y2="406.548">
		<stop  offset="0" style="stop-color:#EBEDED"/>
		<stop  offset="0.2069" style="stop-color:#F0F1F1"/>
		<stop  offset="0.9961" style="stop-color:#FFFFFF"/>
	</linearGradient>
	<polygon class="st11" points="2247.35,-71.73 2074.19,-71.73 1987.61,78.23 2074.19,228.19 2247.35,228.19 2333.93,78.23 
		2311.65,39.65 	"/>
	<polygon class="st10" points="2311.65,39.65 2247.35,-71.73 2074.19,-71.73 1987.61,78.23 2074.19,228.19 2247.35,228.19 
		2333.93,78.23 	"/>
	<polygon class="st0" points="2246.32,226.41 2075.22,226.41 1989.67,78.23 2075.22,-69.94 2246.32,-69.94 2331.87,78.23 	"/>
	<polygon class="st0" points="2222.37,-28.46 2099.17,-28.46 2037.57,78.23 2099.17,184.92 2222.37,184.92 2283.97,78.23 
		2268.12,50.78 	"/>
	<path class="st10" d="M2268.12,50.78l-45.75-79.24h-123.2l-61.6,106.69l61.6,106.69h123.2l61.6-106.69L2268.12,50.78z
		 M2221.64,183.65H2099.9l-60.87-105.42l60.87-105.42h121.73l60.87,105.42L2221.64,183.65z"/>
	<polygon class="st0" points="2490.69,630.74 2317.53,630.74 2230.95,780.7 2317.53,930.66 2490.69,930.66 2577.27,780.7 
		2554.99,742.11 	"/>
	<path class="st10" d="M2554.99,742.11l-64.3-111.37h-173.16l-86.58,149.96l86.58,149.96h173.16l86.58-149.96L2554.99,742.11z
		 M2489.66,928.87h-171.1l-85.55-148.17l85.55-148.17h171.1l85.55,148.17L2489.66,928.87z"/>
	<polygon class="st0" points="2977.37,911.73 2804.22,911.73 2717.64,1061.68 2804.22,1211.64 2977.37,1211.64 3063.95,1061.68 
		3041.68,1023.1 	"/>
	<path class="st10" d="M3041.68,1023.1l-64.3-111.37h-173.16l-86.58,149.96l86.58,149.96h173.16l86.58-149.96L3041.68,1023.1z
		 M2976.34,1209.86h-171.1l-85.55-148.17l85.55-148.17h171.1l85.55,148.17L2976.34,1209.86z"/>
	<polygon class="st0" points="2709.05,533.51 2585.86,533.51 2524.26,640.2 2585.86,746.9 2709.05,746.9 2770.65,640.2 
		2754.8,612.75 	"/>
	<path class="st10" d="M2754.8,612.75l-45.75-79.24h-123.2l-61.6,106.69l61.6,106.69h123.2l61.6-106.69L2754.8,612.75z
		 M2708.32,745.63h-121.73l-60.87-105.42l60.87-105.42h121.73l60.87,105.42L2708.32,745.63z"/>
	<polygon class="st0" points="2709.05,814.5 2585.86,814.5 2524.26,921.19 2585.86,1027.88 2709.05,1027.88 2770.65,921.19 
		2754.8,893.74 	"/>
	<path class="st10" d="M2754.8,893.74l-45.75-79.24h-123.2l-61.6,106.69l61.6,106.69h123.2l61.6-106.69L2754.8,893.74z
		 M2708.32,1026.61h-121.73l-60.87-105.42l60.87-105.42h121.73l60.87,105.42L2708.32,1026.61z"/>
	<polygon class="st0" points="2709.05,1376.47 2585.86,1376.47 2524.26,1483.16 2585.86,1589.86 2709.05,1589.86 2770.65,1483.16 
		2754.8,1455.71 	"/>
	<path class="st10" d="M2754.8,1455.71l-45.75-79.24h-123.2l-61.6,106.69l61.6,106.69h123.2l61.6-106.69L2754.8,1455.71z
		 M2708.32,1588.59h-121.73l-60.87-105.42l60.87-105.42h121.73l60.87,105.42L2708.32,1588.59z"/>
	<polygon class="st0" points="1735.69,-28.46 1612.49,-28.46 1550.89,78.23 1612.49,184.92 1735.69,184.92 1797.29,78.23 
		1781.44,50.78 	"/>
	<path class="st10" d="M1781.43,50.78l-45.75-79.24h-123.2l-61.6,106.69l61.6,106.69h123.2l61.6-106.69L1781.43,50.78z
		 M1734.95,183.65h-121.73l-60.87-105.42l60.87-105.42h121.73l60.87,105.42L1734.95,183.65z"/>
	<g class="st1">
		<linearGradient id="SVGID_12_" gradientUnits="userSpaceOnUse" x1="324.9308" y1="1368.7256" x2="103.1451" y2="1597.6042">
			<stop  offset="1.508760e-03" style="stop-color:#C39CF2"/>
			<stop  offset="0.1104" style="stop-color:#CAA4DB"/>
			<stop  offset="0.3367" style="stop-color:#DDBAA2"/>
			<stop  offset="0.4658" style="stop-color:#E9C77E"/>
			<stop  offset="0.4983" style="stop-color:#EBC983"/>
			<stop  offset="0.5349" style="stop-color:#F1CF90"/>
			<stop  offset="0.5735" style="stop-color:#FAD9A7"/>
			<stop  offset="0.5903" style="stop-color:#FFDEB3"/>
			<stop  offset="0.6405" style="stop-color:#F7D6A1"/>
			<stop  offset="0.7161" style="stop-color:#E9C77E"/>
			<stop  offset="0.8916" style="stop-color:#F3D58C"/>
			<stop  offset="0.9267" style="stop-color:#F6D98F"/>
		</linearGradient>
		<path class="st12" d="M296.19,1625.46h-164.3l-82.15-142.29l82.15-142.29h164.3l82.15,142.29L296.19,1625.46z M133.96,1621.86
			h160.15l80.08-138.7l-80.08-138.7H133.96l-80.08,138.7L133.96,1621.86z"/>
	</g>
	<g class="st1">
		<linearGradient id="SVGID_13_" gradientUnits="userSpaceOnUse" x1="81.5884" y1="1509.2192" x2="-140.1949" y2="1738.0953">
			<stop  offset="1.508760e-03" style="stop-color:#C39CF2"/>
			<stop  offset="0.1104" style="stop-color:#CAA4DB"/>
			<stop  offset="0.3367" style="stop-color:#DDBAA2"/>
			<stop  offset="0.4658" style="stop-color:#E9C77E"/>
			<stop  offset="0.4983" style="stop-color:#EBC983"/>
			<stop  offset="0.5349" style="stop-color:#F1CF90"/>
			<stop  offset="0.5735" style="stop-color:#FAD9A7"/>
			<stop  offset="0.5903" style="stop-color:#FFDEB3"/>
			<stop  offset="0.6405" style="stop-color:#F7D6A1"/>
			<stop  offset="0.7161" style="stop-color:#E9C77E"/>
			<stop  offset="0.8916" style="stop-color:#F3D58C"/>
			<stop  offset="0.9267" style="stop-color:#F6D98F"/>
		</linearGradient>
		<path class="st13" d="M52.85,1765.95h-164.3l-82.15-142.29l82.15-142.29h164.3L135,1623.66L52.85,1765.95z M-109.38,1762.35H50.77
			l80.08-138.69l-80.08-138.7h-160.15l-80.08,138.7L-109.38,1762.35z"/>
	</g>
	<g class="st1">
		<linearGradient id="SVGID_14_" gradientUnits="userSpaceOnUse" x1="1054.9543" y1="1509.2186" x2="833.17" y2="1738.0959">
			<stop  offset="1.508760e-03" style="stop-color:#9E6025"/>
			<stop  offset="0.1224" style="stop-color:#AE7738"/>
			<stop  offset="0.3739" style="stop-color:#D8B06A"/>
			<stop  offset="0.4658" style="stop-color:#E9C77E"/>
			<stop  offset="0.4983" style="stop-color:#EBC983"/>
			<stop  offset="0.5349" style="stop-color:#F1CF90"/>
			<stop  offset="0.5735" style="stop-color:#FAD9A7"/>
			<stop  offset="0.5903" style="stop-color:#FFDEB3"/>
			<stop  offset="0.6405" style="stop-color:#F7D6A1"/>
			<stop  offset="0.7161" style="stop-color:#E9C77E"/>
			<stop  offset="0.8916" style="stop-color:#F3D58C"/>
			<stop  offset="0.9267" style="stop-color:#F6D98F"/>
		</linearGradient>
		<path class="st14" d="M1026.21,1765.95h-164.3l-82.15-142.29l82.15-142.29h164.3l82.15,142.29L1026.21,1765.95z M863.99,1762.35
			h160.15l80.08-138.69l-80.08-138.7H863.99l-80.08,138.7L863.99,1762.35z"/>
	</g>
	<g class="st1">
		<linearGradient id="SVGID_15_" gradientUnits="userSpaceOnUse" x1="1054.9551" y1="1790.2046" x2="833.1692" y2="2019.0835">
			<stop  offset="1.508760e-03" style="stop-color:#C39CF2"/>
			<stop  offset="0.1104" style="stop-color:#CAA4DB"/>
			<stop  offset="0.3367" style="stop-color:#DDBAA2"/>
			<stop  offset="0.4658" style="stop-color:#E9C77E"/>
			<stop  offset="0.4983" style="stop-color:#EBC983"/>
			<stop  offset="0.5349" style="stop-color:#F1CF90"/>
			<stop  offset="0.5735" style="stop-color:#FAD9A7"/>
			<stop  offset="0.5903" style="stop-color:#FFDEB3"/>
			<stop  offset="0.6405" style="stop-color:#F7D6A1"/>
			<stop  offset="0.7161" style="stop-color:#E9C77E"/>
			<stop  offset="0.8916" style="stop-color:#F3D58C"/>
			<stop  offset="0.9267" style="stop-color:#F6D98F"/>
		</linearGradient>
		<path class="st15" d="M1026.21,2046.93h-164.3l-82.15-142.29l82.15-142.29h164.3l82.15,142.29L1026.21,2046.93z M863.99,2043.34
			h160.15l80.08-138.7l-80.08-138.7H863.99l-80.08,138.7L863.99,2043.34z"/>
	</g>
	<g class="st1">
		<linearGradient id="SVGID_16_" gradientUnits="userSpaceOnUse" x1="81.5892" y1="1228.2317" x2="-140.1957" y2="1457.1095">
			<stop  offset="1.508760e-03" style="stop-color:#9E6025"/>
			<stop  offset="0.1224" style="stop-color:#AE7738"/>
			<stop  offset="0.3739" style="stop-color:#D8B06A"/>
			<stop  offset="0.4658" style="stop-color:#E9C77E"/>
			<stop  offset="0.4983" style="stop-color:#EBC983"/>
			<stop  offset="0.5349" style="stop-color:#F1CF90"/>
			<stop  offset="0.5735" style="stop-color:#FAD9A7"/>
			<stop  offset="0.5903" style="stop-color:#FFDEB3"/>
			<stop  offset="0.6405" style="stop-color:#F7D6A1"/>
			<stop  offset="0.7161" style="stop-color:#E9C77E"/>
			<stop  offset="0.8916" style="stop-color:#F3D58C"/>
			<stop  offset="0.9267" style="stop-color:#F6D98F"/>
		</linearGradient>
		<path class="st16" d="M52.85,1484.96h-164.3l-82.15-142.29l82.15-142.29h164.3L135,1342.67L52.85,1484.96z M-109.38,1481.37H50.77
			l80.08-138.7l-80.08-138.7h-160.15l-80.08,138.7L-109.38,1481.37z"/>
	</g>
	<g class="st1">
		<linearGradient id="SVGID_17_" gradientUnits="userSpaceOnUse" x1="324.9299" y1="1649.713" x2="103.146" y2="1878.5898">
			<stop  offset="1.508760e-03" style="stop-color:#9E6025"/>
			<stop  offset="0.1224" style="stop-color:#AE7738"/>
			<stop  offset="0.3739" style="stop-color:#D8B06A"/>
			<stop  offset="0.4658" style="stop-color:#E9C77E"/>
			<stop  offset="0.4983" style="stop-color:#EBC983"/>
			<stop  offset="0.5349" style="stop-color:#F1CF90"/>
			<stop  offset="0.5735" style="stop-color:#FAD9A7"/>
			<stop  offset="0.5903" style="stop-color:#FFDEB3"/>
			<stop  offset="0.6405" style="stop-color:#F7D6A1"/>
			<stop  offset="0.7161" style="stop-color:#E9C77E"/>
			<stop  offset="0.8916" style="stop-color:#F3D58C"/>
			<stop  offset="0.9267" style="stop-color:#F6D98F"/>
		</linearGradient>
		<path class="st17" d="M296.19,1906.44h-164.3l-82.15-142.29l82.15-142.29h164.3l82.15,142.29L296.19,1906.44z M133.96,1902.85
			h160.15l80.08-138.7l-80.08-138.69H133.96l-80.08,138.69L133.96,1902.85z"/>
	</g>
	<g class="st1">
		<linearGradient id="SVGID_18_" gradientUnits="userSpaceOnUse" x1="81.5892" y1="1790.2051" x2="-140.1957" y2="2019.083">
			<stop  offset="1.508760e-03" style="stop-color:#C39CF2"/>
			<stop  offset="0.1104" style="stop-color:#CAA4DB"/>
			<stop  offset="0.3367" style="stop-color:#DDBAA2"/>
			<stop  offset="0.4658" style="stop-color:#E9C77E"/>
			<stop  offset="0.4983" style="stop-color:#EBC983"/>
			<stop  offset="0.5349" style="stop-color:#F1CF90"/>
			<stop  offset="0.5735" style="stop-color:#FAD9A7"/>
			<stop  offset="0.5903" style="stop-color:#FFDEB3"/>
			<stop  offset="0.6405" style="stop-color:#F7D6A1"/>
			<stop  offset="0.7161" style="stop-color:#E9C77E"/>
			<stop  offset="0.8916" style="stop-color:#F3D58C"/>
			<stop  offset="0.9267" style="stop-color:#F6D98F"/>
		</linearGradient>
		<path class="st18" d="M52.85,2046.93h-164.3l-82.15-142.29l82.15-142.29h164.3L135,1904.64L52.85,2046.93z M-109.38,2043.34H50.77
			l80.08-138.7l-80.08-138.7h-160.15l-80.08,138.7L-109.38,2043.34z"/>
	</g>
	<g class="st1">
		<linearGradient id="SVGID_19_" gradientUnits="userSpaceOnUse" x1="568.2719" y1="947.2455" x2="346.4878" y2="1176.1226">
			<stop  offset="1.508760e-03" style="stop-color:#C39CF2"/>
			<stop  offset="0.1104" style="stop-color:#CAA4DB"/>
			<stop  offset="0.3367" style="stop-color:#DDBAA2"/>
			<stop  offset="0.4658" style="stop-color:#E9C77E"/>
			<stop  offset="0.4983" style="stop-color:#EBC983"/>
			<stop  offset="0.5349" style="stop-color:#F1CF90"/>
			<stop  offset="0.5735" style="stop-color:#FAD9A7"/>
			<stop  offset="0.5903" style="stop-color:#FFDEB3"/>
			<stop  offset="0.6405" style="stop-color:#F7D6A1"/>
			<stop  offset="0.7161" style="stop-color:#E9C77E"/>
			<stop  offset="0.8916" style="stop-color:#F3D58C"/>
			<stop  offset="0.9267" style="stop-color:#F6D98F"/>
		</linearGradient>
		<path class="st19" d="M539.53,1203.97h-164.3l-82.15-142.29l82.15-142.29h164.3l82.15,142.29L539.53,1203.97z M377.3,1200.38
			h160.15l80.08-138.69l-80.08-138.7H377.3l-80.08,138.7L377.3,1200.38z"/>
	</g>
	<g class="st1">
		<linearGradient id="SVGID_20_" gradientUnits="userSpaceOnUse" x1="81.5883" y1="947.246" x2="-140.1948" y2="1176.1221">
			<stop  offset="1.508760e-03" style="stop-color:#C39CF2"/>
			<stop  offset="0.1104" style="stop-color:#CAA4DB"/>
			<stop  offset="0.3367" style="stop-color:#DDBAA2"/>
			<stop  offset="0.4658" style="stop-color:#E9C77E"/>
			<stop  offset="0.4983" style="stop-color:#EBC983"/>
			<stop  offset="0.5349" style="stop-color:#F1CF90"/>
			<stop  offset="0.5735" style="stop-color:#FAD9A7"/>
			<stop  offset="0.5903" style="stop-color:#FFDEB3"/>
			<stop  offset="0.6405" style="stop-color:#F7D6A1"/>
			<stop  offset="0.7161" style="stop-color:#E9C77E"/>
			<stop  offset="0.8916" style="stop-color:#F3D58C"/>
			<stop  offset="0.9267" style="stop-color:#F6D98F"/>
		</linearGradient>
		<path class="st20" d="M52.85,1203.97h-164.3l-82.15-142.29l82.15-142.29h164.3L135,1061.69L52.85,1203.97z M-109.38,1200.38H50.77
			l80.08-138.69l-80.08-138.7h-160.15l-80.08,138.7L-109.38,1200.38z"/>
	</g>
	<g class="st1">
		<linearGradient id="SVGID_21_" gradientUnits="userSpaceOnUse" x1="81.5888" y1="666.2596" x2="-140.1954" y2="895.1368">
			<stop  offset="1.508760e-03" style="stop-color:#9E6025"/>
			<stop  offset="0.1224" style="stop-color:#AE7738"/>
			<stop  offset="0.3739" style="stop-color:#D8B06A"/>
			<stop  offset="0.4658" style="stop-color:#E9C77E"/>
			<stop  offset="0.4983" style="stop-color:#EBC983"/>
			<stop  offset="0.5349" style="stop-color:#F1CF90"/>
			<stop  offset="0.5735" style="stop-color:#FAD9A7"/>
			<stop  offset="0.5903" style="stop-color:#FFDEB3"/>
			<stop  offset="0.6405" style="stop-color:#F7D6A1"/>
			<stop  offset="0.7161" style="stop-color:#E9C77E"/>
			<stop  offset="0.8916" style="stop-color:#F3D58C"/>
			<stop  offset="0.9267" style="stop-color:#F6D98F"/>
		</linearGradient>
		<path class="st21" d="M52.85,922.99h-164.3L-193.6,780.7l82.15-142.29h164.3L135,780.7L52.85,922.99z M-109.38,919.4H50.77
			l80.08-138.7L50.77,642h-160.15l-80.08,138.7L-109.38,919.4z"/>
	</g>
	<g class="st1">
		
			<linearGradient id="SVGID_22_" gradientUnits="userSpaceOnUse" x1="568.272" y1="-1458.0959" x2="346.4877" y2="-1229.2186" gradientTransform="matrix(1 0 0 -1 0 280)">
			<stop  offset="1.508760e-03" style="stop-color:#C39CF2"/>
			<stop  offset="0.1104" style="stop-color:#CAA4DB"/>
			<stop  offset="0.3367" style="stop-color:#DDBAA2"/>
			<stop  offset="0.4658" style="stop-color:#E9C77E"/>
			<stop  offset="0.4983" style="stop-color:#EBC983"/>
			<stop  offset="0.5349" style="stop-color:#F1CF90"/>
			<stop  offset="0.5735" style="stop-color:#FAD9A7"/>
			<stop  offset="0.5903" style="stop-color:#FFDEB3"/>
			<stop  offset="0.6405" style="stop-color:#F7D6A1"/>
			<stop  offset="0.7161" style="stop-color:#E9C77E"/>
			<stop  offset="0.8916" style="stop-color:#F3D58C"/>
			<stop  offset="0.9267" style="stop-color:#F6D98F"/>
		</linearGradient>
		<path class="st22" d="M539.53,1765.95h-164.3l-82.15-142.29l82.15-142.29h164.3l82.15,142.29L539.53,1765.95z M377.3,1762.35
			h160.15l80.08-138.69l-80.08-138.7H377.3l-80.08,138.7L377.3,1762.35z"/>
	</g>
	<polygon class="st0" points="1030.64,1473.7 857.48,1473.7 770.91,1623.66 857.48,1773.62 1030.64,1773.62 1117.22,1623.66 
		1094.94,1585.07 	"/>
	<path class="st10" d="M1094.94,1585.07l-64.3-111.37H857.48l-86.58,149.96l86.58,149.96h173.16l86.58-149.96L1094.94,1585.07z
		 M1029.61,1771.83h-171.1l-85.55-148.17l85.55-148.17h171.1l85.55,148.17L1029.61,1771.83z"/>
	<polygon class="st0" points="57.28,630.74 -115.88,630.74 -202.46,780.7 -115.88,930.66 57.28,930.66 143.85,780.7 121.58,742.11 	
		"/>
	<path class="st10" d="M121.58,742.11l-64.3-111.37h-173.16l-86.58,149.96l86.58,149.96H57.28l86.58-149.96L121.58,742.11z
		 M56.25,928.87h-171.1L-200.4,780.7l85.55-148.17h171.1L141.8,780.7L56.25,928.87z"/>
	<polygon class="st0" points="543.96,1185.03 370.8,1185.03 284.22,1334.99 370.8,1484.95 543.96,1484.95 630.54,1334.99 
		608.26,1296.4 	"/>
	<path class="st10" d="M608.26,1296.41l-64.3-111.37H370.8l-86.58,149.96l86.58,149.96h173.16l86.58-149.96L608.26,1296.41z
		 M542.93,1483.17h-171.1l-85.55-148.17l85.55-148.17h171.1l85.55,148.17L542.93,1483.17z"/>
	<polygon class="st0" points="518.98,1228.3 395.78,1228.3 334.18,1334.99 395.78,1441.68 518.98,1441.68 580.58,1334.99 
		564.73,1307.54 	"/>
	<path class="st10" d="M564.73,1307.54l-45.75-79.24h-123.2l-61.6,106.69l61.6,106.69h123.2l61.6-106.69L564.73,1307.54z
		 M518.25,1440.41H396.51l-60.87-105.42l60.87-105.42h121.73l60.87,105.42L518.25,1440.41z"/>
	<polygon class="st0" points="518.98,1516.97 395.78,1516.97 334.18,1623.66 395.78,1730.35 518.98,1730.35 580.58,1623.66 
		564.73,1596.21 	"/>
	<path class="st10" d="M564.73,1596.21l-45.75-79.24h-123.2l-61.6,106.69l61.6,106.69h123.2l61.6-106.69L564.73,1596.21z
		 M518.25,1729.08H396.51l-60.87-105.42l60.87-105.42h121.73l60.87,105.42L518.25,1729.08z"/>
	<polygon class="st0" points="275.64,822.18 152.44,822.18 90.84,928.87 152.44,1035.56 275.64,1035.56 337.24,928.87 
		321.39,901.42 	"/>
	<path class="st10" d="M321.39,901.42l-45.75-79.24h-123.2l-61.6,106.69l61.6,106.69h123.2l61.6-106.69L321.39,901.42z
		 M274.9,1034.3H153.17L92.31,928.87l60.87-105.42H274.9l60.87,105.42L274.9,1034.3z"/>
	<polygon class="st0" points="-115.88,1492.63 57.28,1492.63 143.85,1342.67 57.28,1192.71 -115.88,1192.71 -202.46,1342.67 
		-180.18,1381.26 	"/>
	<path class="st10" d="M-180.18,1381.26l64.3,111.37H57.28l86.58-149.96l-86.58-149.96h-173.16l-86.58,149.96L-180.18,1381.26z
		 M-114.85,1194.5h171.1l85.55,148.17l-85.55,148.17h-171.1l-85.55-148.17L-114.85,1194.5z"/>
	<polygon class="st0" points="127.46,1914.11 300.62,1914.11 387.2,1764.15 300.62,1614.19 127.46,1614.19 40.88,1764.15 
		63.16,1802.74 	"/>
	<path class="st10" d="M63.16,1802.74l64.3,111.37h173.16l86.58-149.96l-86.58-149.96H127.46l-86.58,149.96L63.16,1802.74z
		 M128.49,1615.98h171.1l85.55,148.17l-85.55,148.17h-171.1l-85.55-148.17L128.49,1615.98z"/>
</g>
</svg>
