<svg width="708" height="471" viewBox="0 0 708 471" fill="none" xmlns="http://www.w3.org/2000/svg">
<ellipse cx="354" cy="399.5" rx="354" ry="24.5" fill="#DCDCE4"/>
<g filter="url(#filter0_ii_721_1481)">
<path d="M180.257 242.712H218.953V334.997H251.058V366.003H218.953V413H180.257V366.003H99.9346V327.917L180.257 242.712ZM180.257 282.019L129.72 334.997H180.257V282.019ZM340.047 239.782C355.184 239.782 368.204 243.119 379.109 249.792C390.096 256.384 398.681 265.905 404.866 278.356C411.051 290.726 414.144 306.514 414.144 325.72C414.144 347.367 411.295 364.05 405.599 375.769C399.17 389.034 390.462 399.043 379.476 405.798C368.571 412.552 355.143 415.93 339.192 415.93C323.649 415.93 310.506 412.674 299.764 406.164C289.103 399.572 280.639 389.888 274.373 377.111C268.107 364.253 264.974 347.896 264.974 328.039C264.974 308.101 268.066 291.825 274.251 279.211C280.517 266.516 289.184 256.791 300.252 250.036C311.32 243.2 324.585 239.782 340.047 239.782ZM371.785 327.917C371.785 305.619 368.489 289.465 361.897 279.455C356.038 270.747 348.348 266.394 338.826 266.394C330.037 266.394 322.632 270.992 316.609 280.188C310.669 289.383 307.698 305.293 307.698 327.917C307.698 350.541 310.709 366.451 316.731 375.646C322.754 384.761 330.322 389.318 339.437 389.318C348.632 389.318 356.323 384.639 362.508 375.28C368.693 365.84 371.785 350.052 371.785 327.917ZM510.335 242.712H549.031V334.997H581.136V366.003H549.031V413H510.335V366.003H430.013V327.917L510.335 242.712ZM510.335 282.019L459.798 334.997H510.335V282.019Z" fill="#E9E9F0"/>
</g>
<path d="M124.743 151.551C124.643 151.611 124.513 151.651 124.363 151.651C99.8529 151.651 75.3429 151.651 50.8329 151.651C50.5029 151.651 50.183 151.421 50.103 151.101C49.303 147.601 53.343 144.861 56.073 146.201C56.453 144.421 58.2129 143.201 60.0529 143.421C59.0429 140.231 60.4429 137.001 63.7929 135.441C66.8729 134.011 69.7529 135.191 71.5829 137.521C72.6329 132.111 77.303 127.431 82.993 127.031C86.083 126.821 89.353 127.691 91.763 129.721C94.163 131.731 94.943 133.941 95.543 136.651C97.343 134.071 100.243 132.851 103.593 133.891C106.893 134.911 107.313 138.281 107.163 141.311C109.823 139.101 113.023 138.031 116.493 140.121C119.373 141.851 120.003 144.641 120.123 147.671C122.493 146.261 124.943 147.661 125.133 150.901C125.143 151.231 124.973 151.451 124.743 151.551Z" fill="#EAF9F3"/>
<path d="M437.73 15.1176C437.73 29.2076 475.97 31.8076 477.95 15.1176C479.95 -1.58244 437.73 -6.05244 437.73 15.1176Z" fill="#E9E9F0"/>
<path d="M129 231.908C129 246.008 176.32 248.728 178.04 231.908C180.15 211.168 129 207.228 129 231.908Z" fill="#E9E9F0"/>
<path d="M125 16.1076C125 25.3076 151.08 27.0876 152.03 16.1076C153.19 2.56757 125 -0.0024271 125 16.1076Z" fill="#E9E9F0"/>
<path d="M256.278 194.458C257.058 190.548 251.268 186.948 246.808 188.388C247.538 185.708 246.708 183.268 242.748 182.068C241.098 181.568 239.118 181.578 237.378 182.048C240.498 175.828 237.598 168.748 227.958 167.288C217.478 165.698 205.848 170.838 203.768 179.118C195.248 170.738 177.188 180.778 182.518 190.418C179.228 189.898 175.828 191.758 175.628 194.528C172.298 193.398 169.668 196.798 171.728 199.718C171.878 199.928 172.188 200.068 172.488 200.068C202.138 200.068 231.798 200.068 261.448 200.068C261.678 200.068 261.858 200.008 261.988 199.928C262.128 199.848 262.238 199.728 262.298 199.558C263.318 196.658 259.578 193.918 256.278 194.458Z" fill="white"/>
<path d="M133.736 149.098C134.273 146.378 130.285 143.875 127.213 144.876C127.716 143.012 127.145 141.315 124.417 140.48C123.281 140.133 121.917 140.14 120.718 140.466C122.867 136.14 120.87 131.216 114.23 130.2C107.012 129.094 99.0019 132.669 97.5693 138.429C91.7011 132.6 79.2622 139.583 82.9332 146.288C80.6672 145.926 78.3255 147.22 78.1877 149.147C75.8942 148.361 74.0827 150.726 75.5016 152.757C75.6049 152.903 75.8184 153 76.025 153C96.4467 153 116.875 153 137.297 153C137.455 153 137.579 152.958 137.669 152.903C137.765 152.847 137.841 152.764 137.882 152.645C138.585 150.628 136.009 148.722 133.736 149.098Z" fill="white"/>
<path d="M288.716 232.139C289.066 230.409 286.496 228.819 284.526 229.459C284.846 228.269 284.486 227.199 282.736 226.669C282.006 226.449 281.136 226.449 280.366 226.659C281.746 223.909 280.456 220.779 276.196 220.129C271.566 219.419 266.416 221.699 265.496 225.359C261.726 221.649 253.746 226.089 256.096 230.359C254.636 230.129 253.136 230.949 253.046 232.179C251.576 231.679 250.406 233.179 251.326 234.479C251.396 234.569 251.526 234.629 251.666 234.629C264.776 234.629 277.886 234.629 291.006 234.629C291.106 234.629 291.186 234.609 291.246 234.569C291.306 234.529 291.356 234.479 291.386 234.399C291.826 233.119 290.176 231.899 288.716 232.139Z" fill="white"/>
<path d="M602.911 268.023C602.911 267.883 602.861 267.763 602.801 267.673C602.701 267.463 602.501 267.303 602.191 267.313C592.881 267.463 583.581 267.613 574.271 267.763C573.891 267.773 573.541 268.083 573.551 268.483C573.771 273.863 573.321 279.413 574.211 284.743C575.041 289.713 580.491 290.093 584.701 290.333C590.101 290.643 597.801 290.833 600.901 287.983C604.491 284.663 603.091 273.293 602.911 268.023Z" fill="#82B7BC"/>
<path d="M578.402 278.533C574.182 278.533 573.212 274.553 573.202 274.513C573.152 274.283 573.292 274.053 573.522 274.003C573.762 273.953 573.982 274.093 574.042 274.323C574.082 274.483 575.062 278.393 579.642 277.563C582.692 277.013 582.922 270.623 582.922 270.563C582.932 270.353 583.092 270.173 583.302 270.143C583.502 270.113 583.712 270.243 583.772 270.453C583.852 270.733 583.932 271.093 584.032 271.503C584.382 273.053 584.922 275.383 586.032 276.363C587.432 277.583 590.642 277.733 592.292 276.993C594.012 276.323 594.842 273.913 594.782 271.733C594.742 271.423 594.712 271.093 594.692 270.773C594.682 270.543 594.852 270.353 595.082 270.333C595.302 270.313 595.512 270.473 595.552 270.693C595.602 271.013 595.632 271.333 595.642 271.653C596.002 273.993 597.371 275.943 599.121 276.473C600.511 276.883 601.852 276.293 602.912 274.813C603.052 274.623 603.322 274.573 603.512 274.713C603.702 274.853 603.752 275.123 603.612 275.313C602.342 277.093 600.612 277.823 598.882 277.293C597.402 276.853 596.172 275.613 595.432 273.973C595.032 275.703 594.102 277.223 592.642 277.793C590.732 278.643 587.172 278.493 585.482 277.013C584.472 276.133 583.902 274.483 583.522 273.013C583.122 275.153 582.142 277.983 579.822 278.403C579.302 278.493 578.832 278.533 578.402 278.533Z" fill="#A3D0D8"/>
<path d="M587.592 265.423C584.632 265.423 574.592 265.553 573.492 267.823C572.022 271.003 588.362 270.753 591.522 270.653C606.472 270.153 608.252 264.673 587.592 265.423Z" fill="#709DA0"/>
<path d="M587.594 264.843C585.884 264.843 571.544 264.593 572.854 268.473C573.494 270.363 576.524 270.533 578.134 270.763C581.684 271.253 585.304 271.273 588.884 271.263C592.054 271.243 595.214 271.083 598.344 270.523C599.744 270.273 602.774 269.793 603.394 268.163C604.984 263.973 588.724 264.813 587.594 264.843C586.854 264.863 586.854 266.013 587.594 265.993C590.864 265.893 594.114 265.893 597.374 266.203C597.944 266.263 603.634 267.023 601.774 268.233C598.334 270.483 592.834 270.083 588.894 270.113C584.494 270.153 579.794 270.233 575.524 269.093C573.454 268.543 574.854 267.343 576.224 266.943C577.664 266.523 579.204 266.393 580.684 266.253C582.974 266.033 585.294 265.993 587.604 265.983C588.334 265.993 588.334 264.843 587.594 264.843Z" fill="#A3D0D8"/>
<path d="M603.111 233.743C602.921 245.053 602.521 256.363 602.371 267.663C602.361 268.213 603.221 268.213 603.231 267.663C603.381 256.363 603.791 245.043 603.971 233.743C603.981 233.193 603.111 233.193 603.111 233.743Z" fill="#82B7BC"/>
<path d="M571.352 233.553C571.702 245.003 571.852 256.413 573.052 267.813C573.112 268.353 573.972 268.363 573.912 267.813C572.712 256.413 572.562 245.003 572.212 233.553C572.202 233.003 571.332 232.993 571.352 233.553Z" fill="#82B7BC"/>
<path d="M586.854 235.463C587.814 247.003 586.614 258.583 587.614 270.123C587.664 270.673 588.524 270.673 588.474 270.123C587.464 258.583 588.674 247.003 587.714 235.463C587.664 234.923 586.804 234.913 586.854 235.463Z" fill="#82B7BC"/>
<path d="M647.403 135.233C643.793 126.083 637.143 116.973 626.733 115.093C626.653 115.083 626.583 115.083 626.513 115.073C626.453 115.063 626.403 115.043 626.343 115.043C618.573 114.253 614.053 122.003 611.313 127.933C606.383 138.653 604.223 150.663 602.283 162.183C598.483 184.853 594.563 209.693 601.213 232.163C601.573 233.403 603.233 233.563 603.923 232.513C611.033 221.583 625.703 217.843 635.083 209.123C644.883 200.013 649.863 186.693 651.453 173.803C653.073 160.663 652.303 147.663 647.403 135.233Z" fill="#A3D0D8"/>
<path d="M570.013 171.903C566.563 153.253 558.413 134.603 549.013 118.073C548.683 117.503 548.153 117.313 547.643 117.383C547.433 117.393 547.213 117.443 546.983 117.553C537.533 122.413 532.453 131.723 529.273 141.343C525.853 151.663 524.063 164.243 525.653 175.043C527.703 189.023 535.603 201.373 546.013 210.923C554.533 218.763 565.143 223.833 572.763 232.793C573.613 233.793 575.303 232.953 575.293 231.763C575.093 211.803 573.653 191.563 570.013 171.903Z" fill="#BCE0E8"/>
<path d="M614.973 104.283C606.623 99.7232 596.863 98.9532 587.643 100.783C587.073 100.893 586.753 101.233 586.633 101.643C581.053 109.603 580.233 120.733 579.423 130.043C578.133 144.683 578.483 159.473 579.133 174.133C580.013 193.893 581.673 213.703 584.193 233.333C584.293 234.113 584.793 234.783 585.673 234.783C591.333 234.783 596.993 234.783 602.663 234.783C603.163 234.783 603.703 234.513 603.943 234.063C619.623 205.263 624.013 170.623 626.643 138.513C627.243 131.193 627.723 123.843 627.843 116.503C627.903 111.643 618.503 106.213 614.973 104.283Z" fill="#BCE0E8"/>
<path d="M591.444 106.453C588.784 91.1232 561.724 103.353 554.564 108.593C547.944 113.433 546.144 118.013 545.724 125.413C545.014 137.743 545.684 150.143 547.244 162.383C549.394 179.193 553.654 195.923 560.494 211.513C562.574 216.263 564.854 220.903 567.354 225.453C568.484 227.513 570.984 234.053 573.414 234.713C577.004 235.683 581.934 234.763 585.654 234.763C586.394 234.763 586.844 234.323 587.014 233.793C587.074 233.653 587.124 233.493 587.134 233.313C589.474 205.363 591.324 177.343 592.284 149.313C592.764 135.263 593.864 120.413 591.444 106.453Z" fill="#A3D0D8"/>
<path d="M570.974 235.413C581.934 237.453 593.504 237.323 604.454 235.413C607.584 234.873 606.254 230.673 603.134 231.223C593.104 232.963 582.334 233.093 572.294 231.223C569.174 230.643 567.844 234.843 570.974 235.413Z" fill="#82B7BC"/>
<path d="M140.842 165.217C140.842 165.157 140.822 165.107 140.792 165.067C140.742 164.977 140.662 164.907 140.532 164.907C136.502 164.977 132.472 165.037 128.432 165.107C128.272 165.107 128.112 165.247 128.122 165.417C128.222 167.747 128.022 170.147 128.412 172.457C128.772 174.607 131.132 174.777 132.952 174.877C135.292 175.017 138.632 175.097 139.972 173.857C141.532 172.427 140.922 167.507 140.842 165.217Z" fill="#8CA8AF"/>
<path d="M130.23 169.777C128.4 169.777 127.98 168.057 127.98 168.037C127.96 167.937 128.02 167.837 128.12 167.817C128.22 167.797 128.32 167.857 128.34 167.957C128.36 168.027 128.78 169.717 130.77 169.357C132.09 169.117 132.19 166.357 132.19 166.327C132.19 166.237 132.26 166.157 132.35 166.147C132.44 166.137 132.53 166.187 132.55 166.277C132.58 166.397 132.62 166.557 132.66 166.737C132.81 167.407 133.04 168.417 133.53 168.847C134.14 169.377 135.53 169.437 136.24 169.117C136.98 168.827 137.35 167.787 137.32 166.837C137.3 166.697 137.29 166.557 137.28 166.417C137.28 166.317 137.35 166.237 137.45 166.227C137.54 166.217 137.64 166.287 137.65 166.387C137.67 166.527 137.68 166.657 137.69 166.807C137.85 167.817 138.44 168.667 139.2 168.897C139.8 169.077 140.38 168.817 140.84 168.177C140.9 168.097 141.02 168.077 141.1 168.137C141.18 168.197 141.2 168.317 141.14 168.397C140.59 169.167 139.84 169.487 139.09 169.257C138.45 169.067 137.91 168.527 137.59 167.817C137.42 168.567 137.01 169.227 136.38 169.467C135.55 169.837 134.01 169.767 133.28 169.127C132.84 168.747 132.6 168.027 132.43 167.397C132.25 168.327 131.83 169.547 130.82 169.737C130.61 169.757 130.41 169.777 130.23 169.777Z" fill="#A9C0C9"/>
<path d="M134.209 164.087C132.929 164.087 128.579 164.147 128.099 165.127C127.459 166.507 134.539 166.397 135.909 166.357C142.379 166.137 143.159 163.767 134.209 164.087Z" fill="#6B7D7E"/>
<path d="M134.211 163.847C133.471 163.847 127.261 163.737 127.821 165.417C128.101 166.237 129.411 166.307 130.111 166.407C131.651 166.617 133.221 166.627 134.771 166.627C136.141 166.617 137.511 166.547 138.871 166.307C139.481 166.197 140.791 165.987 141.061 165.287C141.741 163.467 134.701 163.827 134.211 163.847C133.891 163.857 133.891 164.357 134.211 164.347C135.621 164.307 137.041 164.297 138.451 164.437C138.701 164.467 141.161 164.787 140.361 165.317C138.871 166.287 136.491 166.117 134.781 166.137C132.871 166.157 130.841 166.187 128.991 165.697C128.101 165.457 128.701 164.937 129.291 164.767C129.911 164.587 130.581 164.527 131.221 164.467C132.211 164.367 133.221 164.357 134.221 164.347C134.531 164.337 134.531 163.837 134.211 163.847Z" fill="#A9C0C9"/>
<path d="M140.933 150.367C140.853 155.267 140.673 160.167 140.613 165.067C140.613 165.307 140.983 165.307 140.983 165.067C141.053 160.167 141.223 155.267 141.313 150.367C141.313 150.127 140.933 150.127 140.933 150.367Z" fill="#8CA8AF"/>
<path d="M127.172 150.287C127.322 155.247 127.392 160.187 127.912 165.127C127.932 165.367 128.312 165.367 128.282 165.127C127.762 160.187 127.702 155.247 127.542 150.287C127.542 150.047 127.162 150.047 127.172 150.287Z" fill="#8CA8AF"/>
<path d="M133.891 151.117C134.311 156.117 133.781 161.137 134.221 166.137C134.241 166.377 134.611 166.377 134.591 166.137C134.151 161.137 134.681 156.117 134.261 151.117C134.241 150.877 133.871 150.877 133.891 151.117Z" fill="#8CA8AF"/>
<path d="M160.12 107.687C158.56 103.727 155.68 99.7774 151.16 98.9574C151.13 98.9474 151.1 98.9474 151.06 98.9474C151.03 98.9474 151.01 98.9374 150.99 98.9274C147.62 98.5874 145.66 101.937 144.48 104.517C142.35 109.157 141.41 114.357 140.57 119.357C138.93 129.177 137.23 139.937 140.11 149.677C140.27 150.207 140.99 150.287 141.28 149.827C144.36 145.097 150.72 143.467 154.78 139.697C159.03 135.747 161.18 129.977 161.87 124.397C162.57 118.707 162.24 113.077 160.12 107.687Z" fill="#A9C0C9"/>
<path d="M126.591 123.577C125.091 115.497 121.571 107.417 117.491 100.257C117.351 100.007 117.121 99.9274 116.901 99.9574C116.811 99.9574 116.711 99.9774 116.611 100.037C112.521 102.147 110.311 106.177 108.941 110.347C107.461 114.817 106.691 120.267 107.371 124.947C108.261 131.007 111.681 136.347 116.191 140.487C119.881 143.877 124.481 146.087 127.771 149.967C128.141 150.397 128.871 150.037 128.871 149.527C128.791 140.867 128.171 132.097 126.591 123.577Z" fill="#C7E0E8"/>
<path d="M146.07 94.2774C142.45 92.3074 138.23 91.9674 134.23 92.7574C133.98 92.8074 133.84 92.9574 133.79 93.1274C131.37 96.5774 131.02 101.397 130.66 105.427C130.1 111.767 130.25 118.177 130.54 124.527C130.92 133.087 131.64 141.667 132.73 150.177C132.77 150.517 132.99 150.807 133.37 150.807C135.82 150.807 138.28 150.807 140.73 150.807C140.95 150.807 141.18 150.687 141.28 150.497C148.07 138.017 149.98 123.007 151.11 109.097C151.37 105.927 151.58 102.747 151.63 99.5574C151.67 97.4674 147.6 95.1174 146.07 94.2774Z" fill="#C7E0E8"/>
<path d="M135.879 95.2274C134.729 88.5874 122.999 93.8874 119.899 96.1574C117.029 98.2574 116.249 100.237 116.069 103.447C115.759 108.787 116.049 114.157 116.729 119.457C117.659 126.737 119.509 133.987 122.469 140.737C123.369 142.797 124.359 144.807 125.439 146.777C125.929 147.667 127.009 150.507 128.059 150.787C129.619 151.207 131.749 150.807 133.369 150.807C133.689 150.807 133.889 150.617 133.959 150.387C133.989 150.327 134.009 150.257 134.009 150.177C135.019 138.067 135.819 125.927 136.239 113.787C136.449 107.697 136.919 101.267 135.879 95.2274Z" fill="#A9C0C9"/>
<path d="M126.999 151.097C131.749 151.987 136.759 151.927 141.499 151.097C142.859 150.867 142.279 149.047 140.929 149.277C136.589 150.037 131.919 150.087 127.569 149.277C126.229 149.027 125.649 150.847 126.999 151.097Z" fill="#8CA8AF"/>
<path d="M378.181 271.336C378.231 271.366 378.301 271.386 378.371 271.386C390.691 271.386 403.011 271.386 415.331 271.386C415.491 271.386 415.661 271.276 415.701 271.106C416.111 269.346 414.071 267.966 412.701 268.646C412.511 267.756 411.621 267.136 410.701 267.246C411.211 265.646 410.511 264.016 408.821 263.236C407.271 262.516 405.831 263.106 404.911 264.286C404.381 261.566 402.031 259.216 399.171 259.016C397.621 258.906 395.971 259.346 394.761 260.366C393.551 261.376 393.161 262.486 392.861 263.846C391.961 262.546 390.501 261.936 388.821 262.456C387.161 262.966 386.951 264.666 387.031 266.186C385.691 265.076 384.091 264.536 382.341 265.586C380.891 266.456 380.581 267.856 380.521 269.376C379.331 268.666 378.101 269.376 378.001 270.996C377.991 271.176 378.071 271.286 378.181 271.336Z" fill="#EAF9F3"/>
<path d="M483.272 139.244C483.352 139.294 483.442 139.324 483.562 139.324C501.792 139.324 520.022 139.324 538.262 139.324C538.502 139.324 538.752 139.154 538.802 138.914C539.402 136.314 536.392 134.274 534.362 135.264C534.072 133.944 532.762 133.034 531.402 133.204C532.152 130.834 531.112 128.424 528.622 127.274C526.332 126.204 524.192 127.084 522.832 128.824C522.052 124.794 518.572 121.314 514.342 121.024C512.042 120.864 509.612 121.514 507.822 123.024C506.032 124.524 505.452 126.164 505.012 128.174C503.672 126.254 501.512 125.354 499.022 126.124C496.562 126.884 496.252 129.394 496.372 131.644C494.392 130.004 492.012 129.204 489.432 130.754C487.292 132.044 486.822 134.114 486.732 136.364C484.972 135.314 483.152 136.354 483.002 138.764C482.982 139.004 483.102 139.164 483.272 139.244Z" fill="white"/>
<defs>
<filter id="filter0_ii_721_1481" x="97.9336" y="237.782" width="485.203" height="180.147" filterUnits="userSpaceOnUse" color-interpolation-filters="sRGB">
<feFlood flood-opacity="0" result="BackgroundImageFix"/>
<feBlend mode="normal" in="SourceGraphic" in2="BackgroundImageFix" result="shape"/>
<feColorMatrix in="SourceAlpha" type="matrix" values="0 0 0 0 0 0 0 0 0 0 0 0 0 0 0 0 0 0 127 0" result="hardAlpha"/>
<feOffset dx="3" dy="3"/>
<feGaussianBlur stdDeviation="1"/>
<feComposite in2="hardAlpha" operator="arithmetic" k2="-1" k3="1"/>
<feColorMatrix type="matrix" values="0 0 0 0 0 0 0 0 0 0 0 0 0 0 0 0 0 0 0.21 0"/>
<feBlend mode="normal" in2="shape" result="effect1_innerShadow_721_1481"/>
<feColorMatrix in="SourceAlpha" type="matrix" values="0 0 0 0 0 0 0 0 0 0 0 0 0 0 0 0 0 0 127 0" result="hardAlpha"/>
<feOffset dx="-3" dy="-3"/>
<feGaussianBlur stdDeviation="1"/>
<feComposite in2="hardAlpha" operator="arithmetic" k2="-1" k3="1"/>
<feColorMatrix type="matrix" values="0 0 0 0 1 0 0 0 0 1 0 0 0 0 1 0 0 0 1 0"/>
<feBlend mode="normal" in2="effect1_innerShadow_721_1481" result="effect2_innerShadow_721_1481"/>
</filter>
</defs>
</svg>
